<?xml version="1.0" encoding="UTF-8"?>
<svg width="26px" height="21px" viewBox="0 0 26 21" version="1.1" xmlns="http://www.w3.org/2000/svg" xmlns:xlink="http://www.w3.org/1999/xlink">
    <!-- Generator: Sketch 54.1 (76490) - https://sketchapp.com -->
    <title>Icon / 20 / Placeholder</title>
    <desc>Created with Sketch.</desc>
    <g id="Page-1" stroke="none" stroke-width="1" fill="none" fill-rule="evenodd">
        <g id="Home" transform="translate(-1206.000000, -856.000000)" fill="#FFFFFF" fill-rule="nonzero">
            <g id="POdcast" transform="translate(302.000000, 719.000000)">
                <g id="Group-2" transform="translate(576.000000, 0.000000)">
                    <g id="Icon-/-20-/-Placeholder" transform="translate(341.000000, 147.000000) rotate(-360.000000) translate(-341.000000, -147.000000) translate(327.000000, 133.000000)">
                        <path d="M26.5434355,14.4402506 C26.5435424,14.4851246 26.5319559,14.5132775 26.5066836,14.5385697 L16.4157138,24.6295394 C16.3901907,24.6550624 16.3623462,24.6665801 16.324284,24.6665801 C16.2835071,24.6665801 16.2565462,24.6555032 16.232627,24.631584 L15.3149318,23.7166172 C15.2898552,23.6915383 15.2800487,23.6679482 15.2800487,23.6318864 C15.2800487,23.597943 15.2880483,23.5788347 15.3167983,23.5500619 L21.2684048,17.6191261 L23.6684082,15.2274564 L1.5096146,15.2274564 C1.46804137,15.2274564 1.4,15.1556286 1.4,15.0571846 L1.4,13.761574 C1.4,13.6942191 1.43655527,13.6578661 1.5096146,13.6578661 L23.5880422,13.6578661 L15.3172677,5.36889929 C15.2955893,5.34723584 15.2798215,5.30836992 15.2798215,5.26365923 C15.2798215,5.22482991 15.291253,5.19713764 15.3157898,5.17262016 L16.2325225,4.25566044 C16.257157,4.23104561 16.2847762,4.21965112 16.3240568,4.21965112 C16.3631736,4.21965112 16.3907111,4.2310077 16.4154866,4.25578317 L26.5068345,14.3473582 C26.5320242,14.3725089 26.5435233,14.4004755 26.5434355,14.4402506 Z" id="Path"></path>
                    </g>
                </g>
            </g>
        </g>
    </g>
</svg>